<?xml version="1.0" encoding="UTF-8"?> <svg xmlns="http://www.w3.org/2000/svg" id="Layer_1" data-name="Layer 1" viewBox="0 0 1046 567"><defs><style> .cls-1 { fill: #fff; } </style></defs><g><g><rect class="cls-1" x="936.34" y="526.02" width="57.77" height="12.74"></rect><polygon class="cls-1" points="956.14 510.03 956.14 504.25 987.02 504.25 987.02 485.72 956.14 485.72 956.14 470.52 994.11 470.52 994.11 452 936.34 452 936.34 510.03 956.14 510.03"></polygon></g><g><rect class="cls-1" x="167.72" y="526.02" width="57.77" height="12.74"></rect><polygon class="cls-1" points="187.52 510.03 187.52 504.25 218.4 504.25 218.4 485.72 187.52 485.72 187.52 470.52 225.49 470.52 225.49 452 167.72 452 167.72 510.03 187.52 510.03"></polygon></g><g><rect class="cls-1" x="49.63" y="452.03" width="18.77" height="58"></rect><path class="cls-1" d="m39.49,559c-4.01,0-7.81-.8-11.28-2.37-3.22-1.48-6.2-3.36-8.86-5.6l-4.58-3.85,5.72-5.95c1.58-1.57,3.09-2.5,4.72-2.94,2.27-.63,5.3-.72,7.98.27l2.34.92c.5.19,1.13.39,1.84.56.9.23,4,.3,6.4-.41,1.05-.31,1.97-.84,2.8-1.61.83-.77,1.54-1.9,2.11-3.36.64-1.61.95-3.79.95-6.5v-2.12h18.77v1.52c0,5.14-.73,9.69-2.16,13.55-1.49,3.98-3.58,7.36-6.24,10.04-2.7,2.72-5.9,4.75-9.53,6.03-3.42,1.22-7.12,1.83-10.98,1.83Z"></path></g><g><polygon class="cls-1" points="359.72 510.03 340.94 510.03 340.94 470.83 312.36 470.83 312.36 452 388.3 452 388.3 470.83 359.72 470.83 359.72 510.03"></polygon><rect class="cls-1" x="340.94" y="526.02" width="18.78" height="12.74"></rect></g><g><rect class="cls-1" x="477.02" y="452" width="19.8" height="58.03"></rect><rect class="cls-1" x="477.02" y="526.02" width="54.08" height="12.74"></rect></g><g><path class="cls-1" d="m693.31,510.03c.35-2.02.61-4.07.61-6.2v-51.83h-19.8v51.83c0,2.18-.45,4.24-1.33,6.18,0,0-.01.02-.02.03h20.54Z"></path><path class="cls-1" d="m629.83,526.02c.84,1.02,1.5,2.17,2.45,3.12,2.22,2.17,4.66,4.05,7.32,5.6,2.67,1.56,5.53,2.76,8.6,3.6,3.07.86,6.26,1.27,9.56,1.27,5.01,0,9.7-.94,14.09-2.81,4.38-1.88,8.2-4.43,11.47-7.66.97-.96,1.75-2.06,2.6-3.12h-56.1Z"></path><path class="cls-1" d="m642.84,510.03s-.01-.02-.02-.03c-.89-1.94-1.34-3.99-1.34-6.18v-51.83h-19.85v51.83c0,2.13.24,4.18.6,6.2h20.61Z"></path></g><g><path class="cls-1" d="m797.03,493.17c.24.53.36,1.06.36,1.64v.3c0,.24-.06.59-.18,1.06-.13.46-.45,1.05-.97,1.73l-8.97,12.14h23.88c.1-.3.21-.6.29-.87.09.26.19.57.3.87h23.96c-.56-.75-1.12-1.51-1.67-2.26-2.63-3.56-5.1-6.94-7.45-10.17-.24-.33-.42-.65-.55-.97-.12-.32-.22-.63-.3-.91-.08-.32-.15-.62-.18-.9,0-.28.04-.59.12-.91.16-.65.46-1.29.91-1.94l29.55-39.96h-16.23c-6.1,0-10.64,2.27-13.62,6.84l-13.14,17.92c-.33.45-.57.9-.76,1.36-.18.46-.34.86-.45,1.18-.16.45-.28.83-.36,1.15-.16-.36-.33-.76-.48-1.21-.16-.36-.35-.76-.55-1.18-.21-.42-.45-.86-.73-1.3l-13.2-18.04c-1.41-2.17-3.28-3.84-5.61-5-2.32-1.15-4.93-1.72-7.83-1.72h-16.35l29.36,39.72c.33.45.61.93.86,1.46Z"></path><path class="cls-1" d="m775.45,526.02l-9.42,12.74h16.35c2.98,0,5.61-.59,7.84-1.78,2.24-1.19,4.17-2.88,5.79-5.06l4.29-5.9h-24.85Z"></path><path class="cls-1" d="m847.55,526.02h-24.71l4.47,6.02c1.54,2.07,3.41,3.69,5.63,4.9,2.22,1.21,4.84,1.82,7.87,1.82h16.17c-2.27-3.07-4.68-6.32-7.23-9.78-.72-.97-1.47-1.98-2.2-2.96Z"></path></g></g><g><path class="cls-1" d="m1012.91,443.9c-7.96,0-14.44-6.48-14.44-14.44s6.48-14.44,14.44-14.44,14.44,6.48,14.44,14.44-6.48,14.44-14.44,14.44Zm0-28.03c-7.5,0-13.6,6.1-13.6,13.6s6.1,13.6,13.6,13.6,13.6-6.1,13.6-13.6-6.1-13.6-13.6-13.6Z"></path><g><path class="cls-1" d="m1010.54,425.78h-3.22v8.67h-1.16v-8.67h-3.22v-1.07h7.6v1.07Z"></path><path class="cls-1" d="m1011.9,424.71h1.72l3.3,7.64h.03l3.33-7.64h1.68v9.74h-1.16v-8.17h-.03l-3.49,8.17h-.7l-3.49-8.17h-.03v8.17h-1.16v-9.74Z"></path></g></g><g><path class="cls-1" d="m518.69,9h-25.14c-12.44,28.66-89.23,203.84-96.75,221.07h32.36l72.42-166.04c.79-1.73,1.5-3.74,2.13-6.02.63-2.28,1.1-4.45,1.42-6.5.47-2.36.84-4.76.99-7.13.16,2.36.52,4.76.99,7.13.31,2.05.79,4.21,1.42,6.5.63,2.28,1.34,4.29,2.13,6.02l72.42,166.04h32.36c-7.52-17.23-84.31-192.41-96.75-221.07Z"></path><g><path class="cls-1" d="m611.11,294.02l16.08,36.69c2.37,5.21,5.88,9.35,10.54,12.43,4.65,3.08,9.91,4.62,15.75,4.62h13.26c-7.85-17.99-15.66-35.9-23.42-53.74h-32.21Z"></path><path class="cls-1" d="m401.06,294.02l-16.08,36.69c-2.37,5.21-5.88,9.35-10.54,12.43-4.65,3.08-9.91,4.62-15.75,4.62h-13.26c7.85-17.99,15.66-35.9,23.42-53.74h32.21Z"></path></g></g></svg> 